<svg xmlns="http://www.w3.org/2000/svg" viewBox="0 0 100 100" width="100%" height="100%">
  <circle cx="50" cy="50" r="46" fill="none" stroke="#1A3D7C" stroke-width="3"/>
  <circle cx="50" cy="50" r="38" fill="none" stroke="#1A3D7C" stroke-width="1"/>
  <circle cx="50" cy="50" r="6" fill="#1A3D7C"/>
  <line x1="50.00" y1="42.00" x2="50.00" y2="14.00" stroke="#1A3D7C" stroke-width="1.5" stroke-linecap="round"/>
  <line x1="52.07" y1="42.27" x2="59.32" y2="15.23" stroke="#1A3D7C" stroke-width="1.5" stroke-linecap="round"/>
  <line x1="54.00" y1="43.07" x2="68.00" y2="18.82" stroke="#1A3D7C" stroke-width="1.5" stroke-linecap="round"/>
  <line x1="55.66" y1="44.34" x2="75.46" y2="24.54" stroke="#1A3D7C" stroke-width="1.5" stroke-linecap="round"/>
  <line x1="56.93" y1="46.00" x2="81.18" y2="32.00" stroke="#1A3D7C" stroke-width="1.5" stroke-linecap="round"/>
  <line x1="57.73" y1="47.93" x2="84.77" y2="40.68" stroke="#1A3D7C" stroke-width="1.5" stroke-linecap="round"/>
  <line x1="58.00" y1="50.00" x2="86.00" y2="50.00" stroke="#1A3D7C" stroke-width="1.5" stroke-linecap="round"/>
  <line x1="57.73" y1="52.07" x2="84.77" y2="59.32" stroke="#1A3D7C" stroke-width="1.5" stroke-linecap="round"/>
  <line x1="56.93" y1="54.00" x2="81.18" y2="68.00" stroke="#1A3D7C" stroke-width="1.5" stroke-linecap="round"/>
  <line x1="55.66" y1="55.66" x2="75.46" y2="75.46" stroke="#1A3D7C" stroke-width="1.5" stroke-linecap="round"/>
  <line x1="54.00" y1="56.93" x2="68.00" y2="81.18" stroke="#1A3D7C" stroke-width="1.5" stroke-linecap="round"/>
  <line x1="52.07" y1="57.73" x2="59.32" y2="84.77" stroke="#1A3D7C" stroke-width="1.5" stroke-linecap="round"/>
  <line x1="50.00" y1="58.00" x2="50.00" y2="86.00" stroke="#1A3D7C" stroke-width="1.5" stroke-linecap="round"/>
  <line x1="47.93" y1="57.73" x2="40.68" y2="84.77" stroke="#1A3D7C" stroke-width="1.5" stroke-linecap="round"/>
  <line x1="46.00" y1="56.93" x2="32.00" y2="81.18" stroke="#1A3D7C" stroke-width="1.5" stroke-linecap="round"/>
  <line x1="44.34" y1="55.66" x2="24.54" y2="75.46" stroke="#1A3D7C" stroke-width="1.5" stroke-linecap="round"/>
  <line x1="43.07" y1="54.00" x2="18.82" y2="68.00" stroke="#1A3D7C" stroke-width="1.5" stroke-linecap="round"/>
  <line x1="42.27" y1="52.07" x2="15.23" y2="59.32" stroke="#1A3D7C" stroke-width="1.5" stroke-linecap="round"/>
  <line x1="42.00" y1="50.00" x2="14.00" y2="50.00" stroke="#1A3D7C" stroke-width="1.5" stroke-linecap="round"/>
  <line x1="42.27" y1="47.93" x2="15.23" y2="40.68" stroke="#1A3D7C" stroke-width="1.5" stroke-linecap="round"/>
  <line x1="43.07" y1="46.00" x2="18.82" y2="32.00" stroke="#1A3D7C" stroke-width="1.5" stroke-linecap="round"/>
  <line x1="44.34" y1="44.34" x2="24.54" y2="24.54" stroke="#1A3D7C" stroke-width="1.5" stroke-linecap="round"/>
  <line x1="46.00" y1="43.07" x2="32.00" y2="18.82" stroke="#1A3D7C" stroke-width="1.5" stroke-linecap="round"/>
  <line x1="47.93" y1="42.27" x2="40.68" y2="15.23" stroke="#1A3D7C" stroke-width="1.5" stroke-linecap="round"/>
  <circle cx="50.00" cy="12.00" r="2.5" fill="#1A3D7C"/>
  <circle cx="59.84" cy="13.29" r="2.5" fill="#1A3D7C"/>
  <circle cx="69.00" cy="17.09" r="2.5" fill="#1A3D7C"/>
  <circle cx="76.87" cy="23.13" r="2.5" fill="#1A3D7C"/>
  <circle cx="82.91" cy="31.00" r="2.5" fill="#1A3D7C"/>
  <circle cx="86.71" cy="40.16" r="2.5" fill="#1A3D7C"/>
  <circle cx="88.00" cy="50.00" r="2.5" fill="#1A3D7C"/>
  <circle cx="86.71" cy="59.84" r="2.5" fill="#1A3D7C"/>
  <circle cx="82.91" cy="69.00" r="2.5" fill="#1A3D7C"/>
  <circle cx="76.87" cy="76.87" r="2.5" fill="#1A3D7C"/>
  <circle cx="69.00" cy="82.91" r="2.5" fill="#1A3D7C"/>
  <circle cx="59.84" cy="86.71" r="2.5" fill="#1A3D7C"/>
  <circle cx="50.00" cy="88.00" r="2.5" fill="#1A3D7C"/>
  <circle cx="40.16" cy="86.71" r="2.5" fill="#1A3D7C"/>
  <circle cx="31.00" cy="82.91" r="2.5" fill="#1A3D7C"/>
  <circle cx="23.13" cy="76.87" r="2.5" fill="#1A3D7C"/>
  <circle cx="17.09" cy="69.00" r="2.5" fill="#1A3D7C"/>
  <circle cx="13.29" cy="59.84" r="2.5" fill="#1A3D7C"/>
  <circle cx="12.00" cy="50.00" r="2.5" fill="#1A3D7C"/>
  <circle cx="13.29" cy="40.16" r="2.5" fill="#1A3D7C"/>
  <circle cx="17.09" cy="31.00" r="2.5" fill="#1A3D7C"/>
  <circle cx="23.13" cy="23.13" r="2.5" fill="#1A3D7C"/>
  <circle cx="31.00" cy="17.09" r="2.5" fill="#1A3D7C"/>
  <circle cx="40.16" cy="13.29" r="2.5" fill="#1A3D7C"/>
</svg>